<?xml version="1.0" encoding="UTF-8" standalone="no"?>
<!-- Created with Inkscape (http://www.inkscape.org/) -->

<svg
   xmlns:dc="http://purl.org/dc/elements/1.1/"
   xmlns:cc="http://creativecommons.org/ns#"
   xmlns:rdf="http://www.w3.org/1999/02/22-rdf-syntax-ns#"
   xmlns:svg="http://www.w3.org/2000/svg"
   xmlns="http://www.w3.org/2000/svg"
   xmlns:sodipodi="http://sodipodi.sourceforge.net/DTD/sodipodi-0.dtd"
   xmlns:inkscape="http://www.inkscape.org/namespaces/inkscape"
   width="3000"
   height="3000"
   viewBox="0 0 0 1052.3622"
   id="svg2"
   version="1.1"
   inkscape:version="0.91 r13725"
   sodipodi:docname="magicat fat.svg"
   inkscape:export-filename="/Users/JoelRobinson/Downloads/magicat fat insta.png"
   inkscape:export-xdpi="90"
   inkscape:export-ydpi="90">
  <defs
     id="defs4">
    <inkscape:perspective
       id="perspective4399"
       inkscape:persp3d-origin="1249.9999 : 833.33334 : 1"
       inkscape:vp_z="2500.0001 : 1250 : 1"
       inkscape:vp_y="0 : 999.99997 : 0"
       inkscape:vp_x="0 : 1250 : 1"
       sodipodi:type="inkscape:persp3d" />
  </defs>
  <sodipodi:namedview
     id="base"
     pagecolor="#5f5f5f"
     bordercolor="#232323"
     borderopacity="1"
     inkscape:pageopacity="0"
     inkscape:pageshadow="2"
     inkscape:zoom="0.12374369"
     inkscape:cx="550.0785"
     inkscape:cy="1403.1112"
     inkscape:document-units="px"
     inkscape:current-layer="layer1"
     showgrid="false"
     units="px"
     fit-margin-left="200"
     fit-margin-top="200"
     fit-margin-bottom="200"
     fit-margin-right="200"
     borderlayer="true"
     inkscape:window-width="1440"
     inkscape:window-height="855"
     inkscape:window-x="0"
     inkscape:window-y="1"
     inkscape:window-maximized="1" />
  <metadata
     id="metadata7">
    <rdf:RDF>
      <cc:Work
         rdf:about="">
        <dc:format>image/svg+xml</dc:format>
        <dc:type
           rdf:resource="http://purl.org/dc/dcmitype/StillImage" />
        <dc:title></dc:title>
      </cc:Work>
    </rdf:RDF>
  </metadata>
  <g
     inkscape:label="Layer 1"
     inkscape:groupmode="layer"
     id="layer1"
     transform="translate(442.2073,1372.5628)">
    <g
       id="g5937"
       transform="matrix(1.0021189,0,0,1.0021189,312.96517,-52.742358)">
      <path
         inkscape:connector-curvature="0"
         d="m 153.19531,1258.9321 c 12.64912,-7.1068 38.47485,-30.7905 51.98337,-47.6722 10.8242,-13.5269 14.13976,-16.3089 17.26723,-14.4887 0.43913,0.2556 -0.58604,4.6929 -2.27831,9.8603 -10.17503,31.0709 -20.8534,77.2094 -20.67099,89.3127 -0.10821,11.3293 6.35979,20.329 13.15027,24.7821 9.08582,5.9164 20.1735,9.2956 32.08434,9.7774 33.22523,-1.2515 42.65782,-11.2545 53.36734,-29.8031 15.5305,-26.9292 24.58778,-51.7819 48.39209,-132.7754 16.5714,-56.3836 19.90178,-72.1596 20.17129,-95.5511 0.3771,-32.5864 -9.1634,-60.9262 -25.7831,-76.59901 -7.05268,-6.65107 -24.46372,-15.42456 -33.43903,-16.85043 -25.17803,-3.99986 -51.67782,5.2005 -73.31487,25.45464 -21.85753,20.4602 -59.52385,61.1073 -77.76996,83.9234 -23.73716,29.6825 -59.97944,81.7321 -75.602154,108.5761 -13.85164,20.8874 -7.653088,43.4345 9.491643,58.553 21.695991,16.8641 40.264801,15.8745 62.950841,3.5003 z m 121.42115,-169.8487 c 7.98106,4.3488 12.47549,14.3355 6.83166,24.0334 -2.59961,4.467 -9.78403,8.985 -16.01115,10.0695 -6.29703,1.0967 -13.96814,-2.9383 -17.30602,-9.1043 -4.66916,-8.6248 -1.71094,-18.3417 7.34067,-24.1084 6.59434,-4.2012 13.68435,-3.8654 19.14484,-0.8902 z"
         style="fill:#5ec96e;fillOpacity:1"
         id="path5229"
         sodipodi:nodetypes="csccccccsccsssccccscccc" />
      <path
         inkscape:connector-curvature="0"
         id="path5227"
         d="m -211.48047,984.44334 c 9.39193,5.15969 16.74138,7.24626 26.68496,7.57597 24.13639,0.8003 42.15891,-8.89316 96.425361,-51.86353 12.629542,-10.00048 24.738724,-19.212 26.908906,-20.47009 l 3.945886,-2.28673 -2.227085,5.8987 c -5.794777,15.34625 -8.104198,37.92504 -4.877559,47.68437 6.394728,14.18257 18.48135,22.56104 28.186937,26.42148 11.74288,4.65639 25.151866,6.33069 43.8764345,5.47879 l 7.2812075,-0.3312 -10.7976676,8.5221 c -15.8457524,12.5066 -65.1486484,57.9141 -71.5764934,65.9213 -15.407947,19.0761 -22.158694,40.4649 -7.403064,59.2297 6.932287,8.6405 15.900093,14.3917 32.543585,20.8697 17.67856,7.1798 34.7776421,5.375 50.8554705,-1.6261 9.3187935,-4.1396 19.0000195,-10.6943 31.8299135,-20.9361 20.281216,-16.1899 55.54137,-49.387 76.763088,-72.2727 8.66353,-9.3416 23.49856,-25.1546 32.96789,-35.1399 26.21106,-27.63928 45.46057,-55.10422 53.9157,-76.92479 11.96317,-30.87327 1.18288,-57.48522 -27.58955,-68.10687 -18.9703,-7.00347 -82.274628,-6.77347 -110.231575,0.40106 l -9.730964,2.49715 9.844039,-25.78805 c 8.575705,-22.46571 10.065247,-27.75165 11.562656,-41.03 3.378685,-29.96502 -6.42693,-51.48771 -28.451874,-62.44859 -15.434623,-7.68172 -40.9879149,-9.49622 -59.985472,-4.26004 -24.133466,6.65216 -56.40571,25.36173 -94.00104,54.4968 -15.92827,12.34393 -83.56016,69.18694 -105.60377,88.7581 -20.93646,18.58752 -26.31517,26.65732 -27.81258,41.72784 -1.97825,19.91551 7.89909,37.67419 26.69666,48.002 z"
         style="fill:#ffc325;fillOpacity:1"
         sodipodi:nodetypes="csscccccccsccccscsscscscccscccc" />
      <path
         inkscape:connector-curvature="0"
         id="path5225"
         d="m 498.46708,1397.8736 c 6.583,-0.1391 17.17684,-1.6006 24.07985,-3.3209 6.77897,-1.6893 14.2446,-3.5525 16.58952,-4.1409 12.44877,-3.1225 41.17272,-19.2967 54.20479,-30.5218 13.59122,-11.7068 28.76255,-34.5678 34.57014,-52.0922 1.98008,-5.9747 3.19297,-6.2122 4.33817,-0.8488 1.18307,5.5397 7.14233,13.9796 12.51317,17.7224 9.24116,6.4396 22.83312,5.9721 30.41073,-1.046 7.69051,-7.1228 10.59457,-14.337 14.43123,-35.8507 5.69286,-34.3067 2.47402,-53.3553 -21.39308,-75.8432 -28.14764,-25.2168 -69.95524,-33.7923 -104.06366,-38.9897 -38.76852,-4.9436 -62.82649,13.252 -62.27724,37.341 2.32695,26.7666 20.78697,36.976 38.97211,41.8658 23.41824,6.1862 22.36581,5.4473 19.86373,13.9424 -10.98468,27.5869 -37.39264,37.7623 -63.58171,23.9397 -6.4037,-3.7008 -13.61655,-15.0073 -16.27811,-25.5173 -3.4715,-13.7083 -3.51558,-30.4071 -0.59472,-46.1708 4.44371,-24.4162 14.71997,-38.9843 34.13969,-51.7456 19.44054,-12.5847 43.01281,-17.4255 68.64059,-13.3145 8.61706,1.5347 24.36199,1.6796 30.76001,0.2854 7.65355,-1.6683 15.73323,-7.4333 21.13353,-15.0789 4.31036,-6.1029 5.23215,-8.4821 6.99962,-18.0698 3.2013,-30.2984 -18.07494,-50.7306 -41.61129,-59.849 -50.81807,-15.4838 -116.84435,-10.7958 -156.00228,15.3743 -27.705,18.7899 -51.38251,56.1007 -66.67076,105.0581 -7.45008,23.8574 -10.83096,66.1839 -7.28687,91.2256 2.09589,14.8104 8.83295,43.0762 11.89657,49.913 12.19792,27.2221 29.5409,45.4797 57.2878,60.31 21.21622,11.3398 38.47302,15.856 58.92847,15.4224 z"
         style="fill:#ff2d25;fillOpacity:1"
         sodipodi:nodetypes="cscscccscccccccsccccccccsccsc" />
      <path
         inkscape:connector-curvature="0"
         id="path5223"
         d="m 833.71971,1427.1556 c 27.29027,-0.2254 55.81006,1.8245 78.09063,-12.2614 14.21529,-11.6615 22.01912,-29.3452 18.00647,-46.1809 -2.00185,-8.0605 -6.85701,-14.9079 -14.29764,-19.8431 -9.17258,-6.084 -12.70236,-7.0792 -33.11079,-9.3348 -9.80781,-1.0839 -17.97293,-2.1536 -18.14492,-2.377 -0.15425,-48.5253 1.81401,-91.1193 2.91625,-145.1958 l 13.43295,-0.1445 c 23.51467,-0.2549 35.62751,-4.3335 49.29467,-16.5985 5.81618,-5.2194 8.75519,-9.0229 10.97972,-14.2104 11.66696,-33.5693 -10.78494,-55.0591 -31.19303,-57.5443 -9.2214,-1.0925 -23.46765,-2.8776 -31.65875,-3.9666 -8.19093,-1.0892 -39.5787,-3.1485 -69.75048,-4.5762 -16.49303,-0.4005 -35.56255,-2.4829 -53.36782,-1.3488 -60.48357,-0.1775 -72.57976,41.82 -56.36037,68.9825 10.56649,15.0983 18.56632,18.6843 35.3183,20.9972 1.5338,0.2088 2.98929,0.3804 4.3829,0.5277 7.70436,0.814 13.51767,0.8788 20.21801,2.3041 0.0421,0.2631 -0.3749,20.1272 -0.92747,44.1427 -0.55256,24.0154 -1.0184,57.1006 -1.03523,73.5229 -0.0238,22.871 -0.38478,30.0552 -1.5448,30.6978 -0.83268,0.4613 -4.40385,1.0769 -7.93605,1.368 -57.81009,-1.3933 -71.52947,44.3665 -44.13848,70.4652 15.22295,13.7125 34.67978,16.6836 52.58715,18.3894 7.76108,0.7205 16.01978,1.1633 23.95568,1.2341 8.58266,0.077 33.00979,0.5041 54.28273,0.9505 z"
         style="fill:#0088e3;fillOpacity:1"
         sodipodi:nodetypes="cccsccccccccccccscscscccccc" />
      <path
         inkscape:connector-curvature="0"
         d="m 1507.2397,1240.0125 c 24.1257,-26.4923 16.8172,-44.3999 1.7095,-69.5543 -14.3445,-23.8155 -30.3118,-45.497 -42.7625,-59.7668 -5.0843,-5.81 -18.202,-21.9635 -29.1499,-35.897 -31.9027,-40.6028 -58.2735,-68.3814 -76.7289,-80.82502 -13.911,-9.37967 -24.9149,-12.96382 -37.7552,-12.29782 -15.5534,0.80689 -27.9423,6.36582 -49.1198,22.03924 -44.9803,33.6006 -33.6129,77.0344 -24.9713,105.1531 3.2969,10.7259 6.8765,22.8649 7.954,26.9753 6.7157,25.6135 46.3302,126.242 57.8519,146.9547 11.4079,20.5083 29.6437,32.9006 46.369,31.5118 6.0553,-0.5028 8.9032,-1.5665 18.6042,-6.9482 10.6143,-5.8934 11.8492,-6.9061 16.8583,-13.8997 6.5021,-9.0777 10.5856,-21.0234 11.0242,-32.249 0.4226,-10.8191 -3.4786,-31.351 -9.6466,-50.7686 -2.7191,-8.5591 -4.878,-16.8386 -4.7976,-18.3989 0.2091,-4.0656 2.827,-6.3069 7.008,-6.0001 5.7657,0.4227 8.9638,2.7409 17.9109,12.9841 15.7268,18.0046 39.3222,42.3589 45.3916,46.8515 7.7727,5.7531 12.1105,7.1373 20.6073,6.5739 8.5082,-0.5639 16.1392,-4.5786 23.6424,-12.4378 z m -178.3047,-153.644 c 11.2836,-4.812 31.4143,2.8172 26.2529,17.7479 -5.6118,18.8133 -40.1839,8.0019 -32.6504,-10.6152 1.2381,-3.0082 3.5018,-5.6213 6.3975,-7.1327 z"
         style="fill:#0088e3;fillOpacity:1"
         id="path5221"
         sodipodi:nodetypes="cccssccccssccscccccccccccc" />
      <path
         inkscape:connector-curvature="0"
         id="path5219"
         d="m 1170.4923,1380.911 c 15.9917,-6.4558 23.1809,-10.8866 35.3312,-21.7743 29.2698,-26.2286 44.4113,-59.1275 43.5246,-94.5704 -0.3335,-13.3311 -3.1814,-31.1851 -5.8943,-36.9511 -3.5757,-7.5998 -9.4923,-13.121 -16.9447,-16.2388 -22.4783,-6.6701 -40.0127,-1.8397 -51.4995,16.2895 -8.6429,11.8812 -8.8583,27.7685 -17.8951,38.2898 -13.7778,13.4877 -34.1558,17.2179 -49.5698,8.0431 -11.8951,-7.3295 -22.1132,-20.9849 -27.0168,-38.4746 -4.6524,-21.6812 -7.9224,-53.5782 7.2058,-67.4118 16.5357,-14.8045 35.615,-17.1251 53.351,-6.4888 14.8393,8.8983 21.2534,11.8653 28.5988,13.2271 20.7126,2.3945 39.6824,-7.7842 46.6815,-28.6092 3.5237,-10.8224 3.0733,-22.9127 -1.944,-33.2868 -4.2933,-8.8772 -11.3647,-17.1708 -20.5499,-24.3554 -31.9074,-24.1031 -80.9001,-27.3674 -116.083,-22.6229 -35.2599,5.0508 -66.9787,19.7367 -86.71106,44.4526 -13.1671,16.5355 -20.30705,36.8404 -23.66634,67.3036 -4.08165,37.0165 -1.60408,64.718 9.22231,103.1065 7.77376,27.5646 17.67086,46.3608 33.54299,63.7043 34.4716,39.6204 90.6482,51.8992 135.4802,43.851 11.3489,-2.29 13.8027,-3.0294 24.8361,-7.4834 z"
         style="fill:#ffc325;fillOpacity:1"
         sodipodi:nodetypes="cssccccccccccscccssccc" />
      <path
         inkscape:connector-curvature="0"
         id="path5217"
         d="m 1702.6224,1059.9597 c 6.8915,-8.4264 12.672,-16.6497 14.2656,-20.2952 5.1421,-11.7626 3.2858,-23.6704 -5.9269,-38.0183 -5.0641,-7.88705 -37.45,-43.11587 -90.3424,-98.27264 l -27.6323,-28.81543 10.4112,-10.89648 c 20.9705,-21.94846 27.217,-38.54786 21.528,-57.20839 -11.1428,-23.32456 -42.087,-52.86363 -67.3104,-47.6108 -13.1801,3.17083 -24.8182,12.68315 -35.818,23.97904 -60.1633,58.47068 -94.7284,89.19319 -133.8665,137.73823 -29.0615,40.99433 28.079,107.48577 67.5019,78.72377 12.6019,-9.23311 24.2942,-21.26471 35.177,-31.452 l 8.4789,7.86927 c 4.6633,4.3281 21.3322,20.44392 37.0419,35.81323 15.71,15.3689 37.0683,35.7459 47.4633,45.282 44.584,40.8995 45.7111,41.7408 57.7143,43.0721 7.0274,0.7791 17.4409,-1.8019 26.5077,-6.5697 8.0752,-4.2468 21.6372,-17.2364 34.8067,-33.3387 z"
         style="fill:#ff2d25;fillOpacity:1"
         sodipodi:nodetypes="sssscsccccccscsccs" />
      <g
         transform="matrix(2.0881943,-0.04068866,0.04068866,2.0881943,-3335.8221,-4724.4541)"
         id="g5385">
        <path
           sodipodi:nodetypes="csscccssccscccsssccc"
           inkscape:connector-curvature="0"
           style="fill:#5ec96e;fillOpacity:1"
           d="m 2738.3613,2090.5176 c -40.7062,-0.1267 -62.3235,3.8778 -100.7929,19.0136 -19.444,7.6504 -28.6111,10.1548 -42.375,18.8399 -4.1946,2.6468 -12.0621,5.9906 -15.6309,8.0469 l 1.1645,3.7507 10.3969,7.376 c 6.2734,-4.0637 14.139,-11.5373 26.9742,-17.4174 7.953,-3.6434 17.5823,16.8638 26.047,13.9049 24.6898,-8.6307 51.4975,-14.3347 80.0815,-17.0244 29.198,-1.7137 54.835,3.1997 81.7246,11.7617 22.1365,7.1067 49.1446,23.0639 67.5058,39.8848 5.771,5.2869 19.7099,20.8802 23.6153,26.418 1.1296,1.6018 2.2358,2.9616 2.9218,3.6386 l 28.3282,-16.7636 c -0.9373,-2.0169 -6.7003,-10.2453 -16.7012,-21.0489 -24.4291,-26.3899 -39.0372,-34.6722 -67.2344,-51.3574 -25.1079,-14.8572 -47.4683,-23.3496 -69.1289,-27.5918 -3.6421,-0.7133 -11.9419,-1.1071 -28.4902,-1.3535 -2.8941,-0.043 -5.6925,-0.07 -8.4063,-0.078 z"
           transform="translate(-789.09644,-130.34072)"
           id="path4255" />
        <path
           sodipodi:nodetypes="ssccccccccccscccsccsscss"
           inkscape:connector-curvature="0"
           style="fill:#ffc325;fillOpacity:1"
           d="m 2729.2793,2063.2617 c -30.4071,0.1043 -63.5603,7.3749 -100.2598,21.9473 -24.5763,9.7585 -17.0753,-0.5729 -32.1176,10.8711 -2.0625,1.5692 -5.5235,4.1817 -7.6914,5.8047 -0.7458,0.5583 -1.3651,1.0613 -2,1.5703 l 17.1504,28.2148 0.2402,-0.1387 c 2.9734,-1.7148 9.1477,-5.521 13.7207,-8.457 27.0951,-14.3179 33.8672,-13.7721 63.0649,-20.5137 29.2707,-5.5489 56.2211,-8.4736 82.959,-5.3066 25.3948,3.1522 50.5554,12.5581 71.9688,23.1367 10.564,5.2595 20.1639,10.8606 28.1855,16.2969 9.0715,6.4519 18.8744,14.7851 25.5703,21.7383 9.7729,10.1483 25.7337,27.7864 29.5645,32.5859 1.6403,2.0552 2.9892,3.5597 3.4297,4.0469 l 21.2793,-12.5938 -1.8008,-3.1816 c -3.7968,-6.708 -5.4256,-9.162 -9.8907,-14.9082 -2.3947,-3.0816 -6.6901,-8.7594 -9.5449,-12.6152 -6.9764,-9.4229 -18.5844,-21.1155 -32.6094,-32.8457 -14.8931,-12.4565 -19.1465,-15.5265 -31.7519,-22.92 -11.1717,-6.5525 -36.5059,-17.8278 -46.6777,-20.7753 -11.6812,-3.3851 -41.7401,-8.6483 -62.1661,-10.8848 -6.7344,-0.7374 -13.606,-1.0964 -20.623,-1.0723 z"
           transform="translate(-789.09644,-130.34072)"
           id="path4253" />
        <path
           style="fill:#ff2d25;fillOpacity:1"
           d="m 2735.7852,2037.4023 c -41.8011,0.4265 -85.4429,9.0407 -124.713,26.4866 -9.6401,4.2826 -10.5019,21.7806 -19.5232,27.1372 -8.7535,5.1976 -25.6873,-1.7779 -33.6877,4.4485 -2.771,2.3509 -4.7246,4.0563 -5.5449,4.8125 l 24.1383,10.4296 c 1.8031,-1.2082 -7.1446,7.415 -3.3707,4.6974 25.0785,-16.1129 55.6522,-29.9208 86.6484,-39.0391 23.4019,-7.34 47.0998,-10.2204 69.6992,-10.4961 34.0214,-0.3479 69.5574,4.5455 97.1719,15.7715 30.3601,11.559 48.1954,27.0807 69.9707,45.8496 19.4431,20.8963 32.7354,35.7331 45.875,56.0859 l 22.9024,-13.5527 c -3.4242,-5.6347 -6.8466,-11.6428 -10.3157,-17.5084 -10.8509,-19.5995 -26.8738,-36.3712 -42.0647,-50.3119 -34.6365,-31.6402 -71.6904,-50.3159 -117.2681,-59.5137 -19.0209,-3.7164 -39.2449,-5.5078 -59.9179,-5.2969 z"
           transform="translate(-789.09644,-130.34072)"
           id="path4251"
           inkscape:connector-curvature="0"
           sodipodi:nodetypes="ssscccccccccccccs" />
      </g>
      <path
         inkscape:connector-curvature="0"
         id="path5155"
         d="m 1244.349,792.68036 c 10.9971,-0.15187 37.1251,-0.0457 58.0621,0.23255 20.9368,0.27427 44.5408,0.28159 52.4528,0 70.2641,-2.45342 64.8722,-2.00185 75.877,-6.35246 9.1149,-3.60319 17.4974,-11.65213 20.8982,-20.06646 1.2788,-3.16461 2.8223,-9.94559 3.4296,-15.0685 1.2969,-10.9402 -0.8601,-19.32068 -8.0087,-31.11534 -7.851,-12.95358 -20.1402,-19.32452 -39.1251,-20.28309 -8.8032,-0.44461 -12.0523,-0.0183 -19.253,2.55844 -4.7645,1.70105 -8.8463,2.88943 -9.0705,2.64077 -0.2241,-0.24865 -2.2761,-5.31686 -4.5599,-11.26277 -2.284,-5.94572 -4.9527,-12.25299 -5.9302,-14.01625 -9.8588,-17.77698 -29.2893,-31.34954 -46.0039,-32.13466 -17.6111,-0.82756 -41.342,10.00999 -52.4913,23.97154 l -3.6424,4.56103 -5.7748,-10.08885 c -17.6851,-27.05481 -44.008,-37.4483 -69.004,-26.97661 -11.0007,4.63312 -24.035,14.92579 -30.4621,24.05461 -4.5665,6.48658 -12.0499,22.31312 -14.586,30.84875 -1.4321,4.82066 -1.8762,5.21989 -5.6071,5.04461 -6.7317,-0.31635 -18.6967,2.7641 -25.105,6.46371 -18.6073,10.74186 -27.8677,31.79561 -22.1234,50.29806 3.2638,10.51169 8.167,17.85876 15.6597,23.46472 7.7154,5.77208 13.8439,7.71209 30.2572,9.57745 16.3905,1.8628 77.656,4.00681 104.1108,3.64344 z"
         style="fill:#ffffff;fillOpacity:1"
         sodipodi:nodetypes="cccccssccscccscccccccccscc" />
      <path
         sodipodi:nodetypes="ccscccsccscccssc"
         id="path4351"
         d="m 1334.4076,350.65168 c 26.5556,3.1282 159.5529,13.09611 256.8834,-97.42546 11.5889,-13.85872 17.1106,-21.89303 30.5908,-44.51134 19.2918,-32.3694 27.4933,-51.8456 39.1943,-93.0743 12.4499,-46.223916 17.0557,-100.267328 -4.5098,-142.453505 -26.236,-49.886015 -83.5786,-66.978327 -144.8897,-21.952671 -24.616,18.524036 -41.1934,44.9286823 -52.3309,72.685279 -11.3903,28.386737 -17.0904,58.187451 -19.8801,82.418437 -2.6055,65.28203 -41.4373,114.87146 -103.6148,122.97895 -40.2728,4.93556 -85.521,0.18114 -90.9581,-10.14447 -1.4811,-2.81277 -6.4468,1.28315 -7.3362,1.83279 -1.0794,0.6671 0.077,4.03791 2.4296,8.38834 16.7353,24.89644 39.075,48.49711 55.0911,72.14626 5.9942,8.91035 12.3192,20.68123 17.9316,33.37078 4.769,10.78267 9.0563,19.60483 9.5273,19.60483 0.4711,0 5.8132,-1.73875 11.8715,-3.86392 z"
         style="fill:#ffffff;fillOpacity:1"
         inkscape:connector-curvature="0" />
      <path
         sodipodi:nodetypes="cccssscccccc"
         id="path4361"
         d="m 985.04666,865.62819 c 45.59894,-37.59679 41.35134,-88.86147 30.86394,-138.69186 -5.9347,-27.72147 -30.01716,-108.50802 -40.34003,-109.28764 -8.31315,3.19023 -44.45095,12.87344 -61.19252,16.39667 -74.38157,15.65418 -94.10643,18.33612 -150.64095,20.48289 -16.3555,0.62099 -29.95239,1.34408 -30.21513,1.60682 -0.26274,0.26274 15.4145,61.28254 16.76645,70.08933 3.08355,20.08823 3.07203,23.91061 -0.0988,32.38459 -34.59538,31.13821 -42.99489,25.35331 -76.22388,62.80666 -26.52247,27.06315 -24.02862,67.39513 -6.62673,95.63037 24.64633,36.40347 59.3987,36.0992 97.13675,35.39898 89.11671,-7.54322 159.80361,-35.8855 220.57091,-86.81681 z"
         style="fill:#ffffff;fillOpacity:1"
         inkscape:connector-curvature="0" />
      <path
         sodipodi:nodetypes="cccccccccc"
         id="path4359"
         d="m 433.14814,831.12374 c 62.9942,-89.92287 92.51388,-136.84041 108.0495,-193.38097 -0.55604,-0.49474 -11.61828,-3.52689 -24.58302,-6.73816 -46.71335,-11.57107 -68.02454,-19.9005 -130.21606,-50.89471 -23.51814,-11.7202 -42.93469,-21.09053 -43.14803,-20.82285 -18.08803,24.43976 -29.80218,47.27799 -51.36165,71.28301 -26.42093,28.8169 -11.41793,24.00905 -44.34996,9.69749 -41.333,-16.80469 -100.34325,-19.631 -124.19257,27.89748 -25.977967,57.45393 -4.31786,99.01381 40.70779,129.56396 67.1882,39.4208 206.92517,111.04834 269.094,33.39475 z"
         style="fill:#ffffff;fillOpacity:1"
         inkscape:connector-curvature="0" />
      <path
         sodipodi:nodetypes="cccccccccscccccscccccsccsssccscccccccsssccccsssccsssscssssscssccscssssssssssssccscccssccccsccsccccscc"
         id="path4357"
         d="m 965.48721,642.0202 c 11.64188,-3.46798 30.14908,-8.75538 41.12719,-11.74947 87.0167,-27.23093 181.8012,-58.16897 261.5001,-79.26115 32.7895,-8.65657 55.9219,-18.72182 79.9423,-34.78384 48.7108,-30.80766 69.2728,-98.11645 52.4906,-144.27641 -11.8234,-35.78468 -31.5499,-61.48252 -54.196,-87.39023 -16.6704,-19.11392 -28.2243,-36.83949 -39.0527,-62.56843 -10.7276,-25.72675 -11.8964,-46.51447 -3.7318,-63.4895 5.2932,-11.00478 18.5934,-25.34123 28.6313,-30.86156 7.7187,-4.24504 20.1832,-7.76845 31.3988,-8.87577 21.2775,-2.10084 51.8383,-8.32815 67.0634,-13.66569 40.6211,-14.24021 59.7355,-32.735886 71.616,-69.298179 3.4788,-10.705451 5.1916,-22.048546 5.2031,-34.4566976 0.018,-11.3121733 -3.829,-35.8190764 -7.4035,-47.2549364 -1.2868,-4.116778 -2.6716,-9.380947 -3.0777,-11.698053 -0.8405,-4.798333 -7.6969,-22.343308 -13.9469,-35.689352 -11.2077,-23.932572 -33.4253,-79.877752 -35.9515,-90.527392 -1.0493,-4.42417 -4.2057,-22.29885 -7.0141,-39.72178 -1.4082,-8.70931 -2.7791,-16.32599 -4.2725,-23.10254 -5.8062,-24.31777 -16.7124,-46.97152 -34.8906,-62.11017 -11.5795,-9.49808 -24.714,-15.31024 -35.1107,-15.84193 -24.2978,-2.18024 -82.9188,14.64274 3.2951,52.54783 20.7601,9.12754 28.0985,51.66428 29.3306,60.22462 5.1515,34.34827 12.5543,77.3873 28.2013,104.90977 16.2069,28.134056 20.3725,41.28707 19.3217,61.008997 -1.3247,24.866069 -9.238,45.31895309 -22.1651,57.287066 -13.8221,12.796775 -24.2577,16.088368 -41.9558,13.233337 -19.637,-3.167906 -33.4333,-9.564647 -48.509,-22.4913294 -15.1314,-12.9749856 -54.7562,-57.5079086 -61.6519,-67.9800766 -3.6003,-5.467996 -33.7929,-41.582384 -39.9869,-54.275784 -6.194,-12.69339 -6.6407,-37.76988 -11.1583,-46.68956 -8.9528,-17.67726 -12.5066,-29.40532 -16.9099,-40.05497 -13.037,-61.52881 -9.5378,-77.08401 13.1954,-99.86205 13.1004,-42.40025 13.4136,-42.40025 13.1004,-42.40025 -49.1672,6.12595 -81.5331,31.73999 -113.2618,61.09079 -15.712,14.53625 -31.8766,29.60219 -53.2687,51.49723 -0.018,0.58019 31.1018,18.22799 32.3923,20.04925 5.0836,7.17399 5.3377,13.75699 9.6071,24.55375 9.5787,24.22312 13.5943,42.7757 15.2932,70.65726 2.2038,36.17001 -12.6444,31.252016 -23.6907,58.84083 -11.0227,27.529534 -12.4616,48.949952 -21.8017,54.0346296 -2.095,1.1404389 -6.5755,4.3191402 -9.9564,7.0636587 -15.3212,12.4368767 -18.0242,14.3342547 -20.4293,14.3401087 -1.4094,0 -5.339,1.776802 -8.7325,3.94058 -12.9485,8.25661 -18.0862,7.891772 -40.52702,15.752073 -35.55579,12.454259 -72.05038,21.010021 -112.67072,26.41416 -24.18945,3.218223 -102.10487,3.332578 -119.71517,0.17565 -6.83604,-1.225519 -19.7995,-3.294886 -28.80756,-4.598533 -9.00788,-1.303829 -19.69466,-3.460288 -23.74832,-4.792112 -4.05365,-1.332006 -9.72291,-2.772512 -12.59862,-3.201389 C 686.26282,44.921653 653.59574,35.371461 638.98557,29.418783 630.40895,25.924279 616.93574,20.41786 609.04525,17.182256 572.91732,2.3675277 584.38666,-0.37497811 551.47586,-25.309112 c -5.70475,-4.322067 -11.46001,-8.440492 -12.78982,-9.152237 -1.32981,-0.711562 -6.94089,-6.466269 -12.46926,-12.787992 -8.96616,-10.25279 -11.37805,-14.203616 -22.33489,-36.586811 -13.79066,-28.172298 -10.66319,-28.074228 -14.3156,-41.945758 -7.43307,-28.23012 13.55719,-50.18224 22.55702,-85.15747 6.76505,-26.29066 4.59597,-11.7824 14.6131,-52.45305 l 7.52016,-30.53259 c -31.97254,-14.61474 -62.23086,-1.80552 -97.37076,-67.09982 -4.1219,-7.65885 -11.62377,-17.52631 -12.76604,-17.52631 -0.50243,0 -1.92921,3.22792 -3.17065,7.17326 -1.24143,3.94515 -5.55783,15.5938 -9.59191,25.88575 -5.3648,13.68636 -8.36657,19.65496 -11.17568,22.22054 -2.11254,1.92939 -5.68408,7.55273 -7.93696,12.49615 -14.08194,30.9009 -30.52892,44.95814 -57.33152,67.50894 -12.94132,10.88842 -19.47547,16.48358 -50.04172,37.79385 -12.69359,8.84961 -32.78932,54.50595 -38.26774,58.33071 -12.97846,9.06076 -36.8329,82.532431 -44.15839,93.74507 -3.1379,4.802907 -8.69884,14.503317 -12.35765,21.556363 -3.65881,7.053047 -8.6381,15.143338 -11.0648,17.978426 -6.8011,7.9457471 -17.5812,14.28101061 -28.39333,16.6864896 C 139.90988,5.2092022 132.5178,4.6443803 121.71354,0.6150612 106.95517,-4.8889792 91.734984,-25.193293 87.771899,-44.664371 c -5.742813,-28.215663 3.601358,-67.413609 22.898621,-96.058149 2.77342,-4.11678 11.66896,-16.35129 19.76785,-27.18793 8.09889,-10.83682 17.08847,-23.7485 19.97698,-28.69284 6.94656,-11.89054 26.45057,-52.39158 31.66369,-65.75117 17.1763,-34.92253 21.55948,-59.60783 51.65111,-80.9836 18.38699,-12.97883 39.59572,-25.4362 44.5966,-33.9195 3.52378,-5.97775 10.35635,-42.7005 10.055,-42.81211 -55.60212,12.94461 -95.30597,41.17436 -119.59221,79.43313 -23.75619,35.82603 -32.86726,79.22272 -53.16919,111.01047 -11.4763,17.84431 -15.957916,23.66635 -29.902814,38.84664 -30.291434,32.97539 -45.990446,72.4445 -48.476065,121.874191 -1.01108,20.105611 0.214256,28.064897 6.999986,45.469719 24.524469,58.481664 109.244823,102.769959 165.162563,96.669077 16.11581,-2.574541 39.22795,-11.557899 56.05295,-21.787269 13.61698,-8.670885 33.40964,-12.172708 48.42245,-7.469847 11.13616,3.794571 21.16174,15.112947 25.99937,29.352259 5.34884,15.744004 1.02814,43.20972 -8.78289,68.5668 -18.7694,40.10148 -53.99684,84.72587 -85.07378,113.66484 -54.25346,50.02726 -63.09685,59.53665 -76.98192,82.7787 -4.10507,6.87136 -9.31142,17.81815 -11.56961,24.32631 -5.76914,22.01448 -6.80877,44.13214 0.0838,62.98085 20.82959,54.57385 55.66949,83.82844 98.14207,113.45236 72.74783,50.50203 164.18212,92.83738 228.78296,109.21482 36.16562,9.07447 65.00941,14.61803 90.7056,17.43281 20.36159,2.23038 34.48854,3.27641 83.99819,6.21981 111.99747,1.89317 183.44451,-4.13654 306.304,-29.9458 z"
         style="fill:#0088e3;fillOpacity:1"
         inkscape:connector-curvature="0" />
      <path
         sodipodi:nodetypes="cccsscssccccccccsccccsscc"
         id="path4353"
         d="m 741.87848,525.97372 c 25.5017,-21.94535 16.30848,-45.86822 12.38016,-76.49211 -4.41118,-34.39815 -5.56278,-46.54118 -4.83091,-50.94028 3.39131,-20.385 14.1641,-30.60778 45.01175,-42.71403 23.49308,-9.21976 30.68903,-14.0395 34.84057,-23.33646 4.11165,-9.20731 -0.71339,-24.18031 -10.35196,-32.12349 -8.67872,-7.15204 -16.57616,-9.32167 -48.80522,-13.40679 -36.71544,-4.65416 -51.41051,-9.68578 -61.1261,-20.92952 -7.2115,-8.34608 -9.14968,-15.59106 -8.86736,-33.14683 0.27299,-16.95655 -3.40265,-42.04108 -7.01224,-47.85836 -6.44139,-10.3805 -17.10512,-17.30749 -25.0463,-16.26951 -43.67588,10.28208 -53.89813,66.50175 -80.83532,87.07774 -4.97801,3.42735 -22.82452,5.41768 -34.55477,3.85385 -16.45412,-2.35279 -80.86475,-6.94054 -78.35096,22.45892 0.92161,7.18351 10.966,27.97506 19.98687,41.37124 12.60246,18.71506 16.36977,26.32835 17.51936,35.40411 1.5748,12.43358 -1.9766,21.13919 -23.06128,56.52189 -11.65048,19.55085 -14.53881,26.35543 -15.9193,37.50183 -3.23286,59.28673 58.90286,19.36917 87.24971,6.60533 24.7969,-11.22087 36.49221,-14.55327 50.90167,-14.50295 13.30597,0.0457 28.67107,4.97727 38.71033,12.42315 8.45403,6.26976 26.88384,24.92041 37.1187,37.56295 8.57314,10.59018 23.25742,25.42137 30.33352,30.63724 2.63382,1.94147 6.47194,3.83062 8.52959,4.1982 4.53925,0.81128 12.03344,-0.99352 16.17949,-3.89612 z"
         style="fill:#ffffff;fillOpacity:1"
         inkscape:connector-curvature="0" />
      <path
         sodipodi:nodetypes="ccccccccccsccscscccc"
         id="path4327"
         d="m 430.86975,-363.96511 c 3.70364,-17.46465 6.63863,-34.47097 9.13028,-50.49365 7.10977,-55.20618 -7.31322,-138.12613 -47.44174,-176.91532 -31.2791,-31.17737 -53.86063,-20.71783 -39.1577,10.14483 10.1979,22.81189 -8.32266,31.9118 -23.06658,7.80724 -9.78219,-11.14164 -17.0162,-15.93595 -28.2969,-3.86519 -9.06551,9.95601 -0.39118,24.5552 5.55308,36.01814 3.35856,8.85162 1.94842,15.66407 -1.32085,19.45169 -9.64515,8.63352 -16.3877,-4.73375 -21.90217,-11.18776 -7.92544,-9.24043 -15.86057,-16.44589 -26.23888,-8.54625 -7.49509,5.89578 -7.07006,18.73372 1.52925,46.17122 5.61181,17.90579 7.63397,35.19644 7.62153,65.17006 0,19.54975 -1.69868,32.69599 -7.57085,58.87687 -2.15463,9.60582 -4.39434,20.95367 -4.97728,25.21755 -0.58293,4.26389 -2.47336,12.40394 -4.20112,18.08894 -12.38803,40.76397 -18.24885,86.03114 -18.62083,143.81972 -0.18955,29.46113 0.59977,56.98737 1.83261,56.99469 24.50182,-34.25941 53.28399,-61.74203 80.76106,-84.7118 29.87475,-27.08024 70.06509,-47.29394 90.35504,-79.20093 13.3594,-21.41592 20.26567,-45.99416 26.01205,-72.84005 z"
         style="fill:#ffffff;fillOpacity:1"
         inkscape:connector-curvature="0" />
      <path
         sodipodi:nodetypes="ccsscscccsccssccsc"
         id="path4325"
         d="m 900.44543,-318.4315 c 1.49869,-0.76993 4.12849,-2.64078 5.84381,-4.15703 1.71533,-1.51644 5.48099,-3.42827 8.36822,-4.24833 2.88723,-0.82007 5.53698,-1.95593 5.88809,-2.52423 0.35112,-0.5683 12.09803,3.00802 10.0541,-6.86822 -2.04412,-9.87643 -17.02352,-92.25846 -19.73382,-110.78396 -6.5283,-44.62184 -11.50192,-67.45624 -17.04694,-78.26433 -0.96333,-1.87762 -3.48334,-5.38621 -5.59992,-7.797 -14.26472,-11.99318 -37.96309,10.75284 -48.1072,18.20842 -29.85048,21.9889 -73.64659,56.97401 -98.15166,81.12083 l -28.96419,28.5408 2.63748,6.47249 c 1.45076,3.55982 3.93125,8.56637 5.51264,11.12572 1.5814,2.55936 2.87516,5.4197 2.87516,6.35613 0,2.62449 9.22122,16.28158 13.0006,19.25444 1.8531,1.45771 6.28221,3.26031 9.84258,4.00608 60.76693,12.7278 121.2122,27.0011 139.46471,36.58112 9.02562,4.73722 10.20595,4.98606 14.11634,2.97707 z"
         style="fill:#0088e3;fillOpacity:1"
         inkscape:connector-curvature="0" />
      <path
         inkscape:connector-curvature="0"
         id="path5215"
         d="m 1493.253,-379.07718 c 10.3949,-0.74505 35.0255,-8.61541 57.4311,-18.35095 22.4454,-9.75292 69.3437,-37.14944 82.3827,-48.12531 12.4255,-10.45955 16.0441,-19.47236 12.0704,-30.06437 -2.4907,-6.63973 -6.622,-10.54957 -21.5904,-20.43404 -6.7431,-4.45271 -12.3844,-8.37097 -12.536,-8.70726 -0.1519,-0.3363 8.2906,-11.95476 18.7606,-25.81897 12.5993,-16.68374 19.7742,-27.18354 21.2184,-31.0513 5.2296,-14.00582 -3.2579,-27.09882 -17.2566,-26.62073 -13.6913,0.46767 -108.0916,50.71797 -122.8256,65.38138 -7.1239,7.08983 -9.2997,17.71038 -5.3996,26.35653 2.5592,5.67329 5.4451,7.75034 27.3813,19.70619 7.2983,3.97791 13.3722,7.42008 13.4981,7.64952 0.5176,0.94522 -37.1498,28.72926 -55.2265,40.73561 -21.5388,14.30571 -25.9291,18.82612 -26.5288,27.314 -0.6651,9.41114 7.0439,19.82878 16.0691,21.71518 2.3795,0.4973 8.0277,0.63892 12.5518,0.31452 z"
         style="fill:#ffc325;fillOpacity:1" />
      <path
         inkscape:connector-curvature="0"
         id="path5213"
         d="m 506.42221,-544.42564 c 7.5048,-3.76969 16.26164,-10.86189 29.21686,-23.6636 7.43509,-7.34671 22.58629,-20.6902 23.49345,-20.6902 1.02059,0 21.73695,9.17603 29.18759,12.92833 21.14249,10.64764 41.02012,16.45778 51.01163,14.91061 10.20522,-1.5803 20.83565,-10.12801 25.09661,-20.17972 4.13544,-9.75511 0.73132,-27.3096 -12.37137,-63.79706 -3.5752,-9.95547 -4.70082,-12.30002 -10.99619,-22.90264 l -2.48763,-4.18978 6.21633,-7.97338 c 3.41912,-4.38537 8.49337,-10.78028 11.27668,-14.21093 8.61248,-10.61635 11.62944,-17.57279 11.63237,-26.82127 0,-13.38776 -6.71712,-22.83988 -18.53612,-26.06835 -22.01078,-3.03787 -43.38677,4.09378 -64.78985,5.23984 l -4.90957,0.24462 -1.65403,-8.10895 c -7.02579,-34.44078 -22.19639,-54.89879 -38.44943,-51.84981 -6.13125,1.15032 -15.38979,9.88265 -20.27138,19.11905 -4.13416,7.82224 -14.69982,35.53602 -19.02079,49.89132 -2.11694,7.03274 -3.32325,9.19304 -5.4078,9.68522 -44.6846,10.55066 -60.71058,15.42694 -67.3675,20.49845 -13.16802,10.03194 -16.35257,22.8708 -8.87047,35.76107 5.0362,8.67652 38.93667,27.90297 57.02524,32.34177 1.88695,0.46291 3.43065,1.34592 3.43065,1.96233 0,2.93243 -3.9468,26.65257 -6.09942,36.65799 -7.27297,33.80295 -5.89431,44.81689 6.57075,52.49148 8.91937,4.63929 18.33627,3.02318 27.07339,-1.27639 z"
         style="fill:#ffffff"
         sodipodi:nodetypes="ccsssccccccccccccssssscsccc" />
      <g
         style="fill:#ff2d25;fillOpacity:1"
         transform="matrix(1.6353319,-0.82061857,0.82061857,1.6353319,-9142.5864,-365.62099)"
         id="g5392">
        <path
           style="fill:#ff2d25;fillOpacity:1"
           d="m 4241.6336,2740.3818 c 4.3125,-0.5676 9.3412,-1.3531 11.1749,-1.7454 l 3.334,-0.7133 -0.4709,-8.6162 c -0.259,-4.7389 -0.7668,-10.764 -1.1285,-13.389 -0.7286,-5.2881 -3.197,-15.793 -4.0853,-17.3863 -0.893,-1.6016 -14.3971,12.6662 -18.9966,20.0707 -3.8537,6.204 -7.8565,15.8338 -8.6536,20.8188 l -0.4648,2.9065 5.725,-0.4569 c 3.1487,-0.2512 9.2533,-0.9212 13.5658,-1.4889 z"
           id="path5211"
           inkscape:connector-curvature="0" />
        <path
           style="fill:#ff2d25;fillOpacity:1"
           d="m 4204.2231,2732.6807 c 2.7704,-11.4878 9.1047,-23.8522 17.4948,-34.1491 1.6805,-2.0625 7.0273,-7.5853 11.8818,-12.2728 l 8.8264,-8.5227 -1.1553,-2.7273 c -1.8678,-4.4095 -9.7801,-18.513 -10.9141,-19.4541 -1.4114,-1.1713 -2.8224,-0.3619 -11.5295,6.6136 -16.2576,13.0246 -33.2048,34.9987 -37.4626,48.5746 -1.4457,4.6095 -4.288,21.0658 -3.7083,21.4699 0.9112,0.6353 11.8635,4.8692 15.198,5.8752 9.9431,2.9997 9.2635,3.323 11.3688,-5.4073 z"
           id="path5209"
           inkscape:connector-curvature="0" />
        <path
           style="fill:#ff2d25;fillOpacity:1"
           d="m 4281.704,2725.9034 c 6.6424,-4.5234 6.2741,-3.2796 5.5808,-18.8491 -1.2033,-27.0233 -4.8524,-43.5285 -13.0267,-58.9203 -6.4137,-12.0767 -14.1125,-21.7994 -27.584,-34.8351 -10.8157,-10.4657 -19.9691,-17.2263 -30.7363,-22.7013 -9.7544,-4.96 -14.7118,-6.5262 -27.4389,-8.6684 l -8.4754,-1.4266 -2.6745,2.6745 -2.6745,2.6745 5.8228,2.1069 c 19.2611,6.9696 33.0724,17.7947 55.4436,43.4566 10.2479,11.7552 13.2521,16.0997 19.5573,28.2822 11.573,22.3608 19.5038,48.1456 19.5538,63.5736 0.013,4.054 0.6613,6.0927 1.7984,5.6563 0.5207,-0.1997 2.7047,-1.5605 4.8536,-3.0238 z"
           id="path5203"
           inkscape:connector-curvature="0" />
        <path
           style="fill:#ff2d25;fillOpacity:1"
           d="m 4159.8154,2716.6893 c 0,-3.5087 3.0673,-13.4955 6.1004,-19.8623 5.1976,-10.9102 15.0077,-24.9551 24.9681,-35.7461 4.6044,-4.9885 16.9517,-15.7356 22.0605,-19.2017 1.8847,-1.2787 3.4278,-2.4783 3.429,-2.6658 0,-0.1875 -3.1743,-3.7159 -7.0568,-7.8409 l -7.0593,-7.5 -5.6766,2.7273 c -3.1222,1.5 -10.1404,5.6781 -15.596,9.2849 -10.8536,7.1753 -18.4689,14.3589 -23.7665,22.4196 -3.3012,5.0229 -10.5876,19.7146 -13.4255,27.0702 l -1.8948,4.9111 1.5625,4.2934 c 2.7591,7.5812 7.4299,15.925 11.3224,20.2263 3.8288,4.231 5.0326,4.6817 5.0326,1.884 z"
           id="path5199"
           inkscape:connector-curvature="0" />
        <path
           style="fill:#ff2d25;fillOpacity:1"
           d="m 4308.1569,2680.8803 c 0.5735,-3.2293 1.2161,-10.1669 1.4278,-15.4169 0.3326,-8.2492 0.1466,-10.9806 -1.3695,-20.1136 -3.6979,-18.7505 -9.4307,-35.0978 -20.8871,-48.9415 -7.2637,-8.7109 -15.8964,-15.5183 -26.2627,-19.9169 -3.75,-1.5865 -6.9138,-2.9715 -7.0307,-3.0779 -0.5838,-0.531 4.5307,-5.348 8.5822,-8.0829 3.932,-2.6543 5.3331,-3.1954 9.839,-3.7996 6.2391,-0.8367 8.4437,-0.4948 13.6924,2.1234 5.1193,2.5536 8.7268,6.2288 17.8782,18.2133 14.9116,19.5282 25.5151,26.1835 38.3324,24.0596 11.8363,-1.9614 20.9362,-10.4241 25.0592,-23.3048 1.951,-6.0953 5.0582,-11.3303 8.8577,-14.9238 3.6118,-3.4159 5.2546,-4.1298 12.8078,-5.5655 4.6347,-0.8811 7.5799,-3.09 8.718,-6.5387 1.67,-5.0599 -0.698,-10.1811 -5.6178,-12.1496 -3.3648,-1.3463 -8.5983,-0.9805 -15.2585,1.0667 -11.5254,3.5426 -23.4347,16.3779 -27.5456,29.6874 -2.3222,7.5188 -4.7494,10.7196 -8.9955,11.863 -5.9577,1.6042 -9.6116,-1.6954 -27.3998,-24.7436 -7.0075,-9.0795 -15.3892,-15.1743 -25.669,-18.6651 -5.4176,-1.8397 -16.2201,-1.6673 -23.6506,0.3775 -9.8163,2.7014 -21.8682,12.0155 -27.409,21.1826 -1.4733,2.4375 -2.9963,4.3609 -3.3846,4.2742 -1.6837,-0.3758 -18.1366,-1.0193 -17.8285,-0.6972 0.1875,0.196 4.2269,2.3454 8.9766,4.7764 15.1397,7.7489 24.5158,14.8096 39.1012,29.445 14.9897,15.0413 21.9037,24.1031 28.9047,37.8834 6.8754,13.5332 10.4734,25.1262 12.7545,41.0953 1.375,9.6262 1.6495,9.6172 3.3772,-0.1102 z"
           id="path5195"
           inkscape:connector-curvature="0"
           sodipodi:nodetypes="csccccccsssscccssccssssccssssc" />
        <path
           style="fill:#ff2d25;fillOpacity:1"
           d="m 4141.4666,2646.7134 c 5.1414,-7.7508 15.8186,-18.6419 23.2532,-23.7188 2.8849,-1.9701 8.471,-5.5379 12.4134,-7.9285 l 7.1682,-4.3467 -3.3683,-1.449 c -1.8526,-0.797 -8.1195,-3.1139 -13.9264,-5.1486 l -10.558,-3.6996 -3.1333,3.5433 c -6.6863,7.5614 -9.9018,14.998 -13.54,31.3142 -1.4485,6.4962 -3.2986,18.6848 -2.7417,18.0632 0.075,-0.084 2.0698,-3.067 4.4329,-6.6295 z"
           id="path5191"
           inkscape:connector-curvature="0" />
      </g>
      <g
         style="fill:#ff2d25;fillOpacity:1"
         transform="matrix(-1.7905348,0.37644458,-0.37644458,-1.7905348,6539.9682,2766.1665)"
         id="g5400">
        <path
           style="fill:#ff2d25;fillOpacity:1"
           d="m 2862.9116,2731.4293 c -7.3392,-7.5902 -11.4561,-12.7844 -16.2176,-20.4616 -9.8778,-15.9263 -16.4924,-33.6841 -20.9677,-56.2907 -1.0203,-5.1539 -2.0749,-8.9774 -2.3435,-8.4967 -2.5635,4.5875 -4.5639,24.6959 -3.3581,33.7565 1.6352,12.2879 7.5663,27.6253 13.985,36.164 4.2231,5.618 11.0181,11.7483 15.9152,14.3585 4.633,2.4693 17.0565,7.5881 18.4594,7.6057 0.5254,0.01 -1.9373,-2.9794 -5.4727,-6.6357 z"
           id="path5207"
           inkscape:connector-curvature="0" />
        <path
           style="fill:#ff2d25;fillOpacity:1"
           d="m 2908.324,2735.1985 c 3.1953,-1.2082 5.8096,-2.362 5.8096,-2.5639 0,-0.2019 -2.0825,-1.9552 -4.6278,-3.8964 -10.4351,-7.958 -23.6906,-23.5534 -32.2877,-37.9867 -12.7497,-21.4052 -25.8118,-56.425 -25.8118,-69.202 0,-3.2748 -0.7801,-3.5059 -4.1606,-1.2327 -3.3134,2.2283 -4.179,6.0787 -3.7879,16.8511 0.3401,9.3699 1.8466,17.5335 5.6617,30.6812 4.5622,15.7223 10.9755,29.0334 19.3176,40.0945 3.6506,4.8404 13.9275,15.48 18.7646,19.4268 4.3504,3.5497 13.6769,10.0012 14.4746,10.0127 0.461,0.01 3.4525,-0.9765 6.6477,-2.1846 z"
           id="path5205"
           inkscape:connector-curvature="0" />
        <path
           style="fill:#ff2d25;fillOpacity:1"
           d="m 2937.5334,2719.0473 c 6.3579,-4.4262 13.6298,-14.2039 17.291,-23.2492 1.9187,-4.7405 1.9307,-4.7528 5.6372,-5.8395 7.3437,-2.153 14.4803,-6.5372 21.4129,-13.1547 8.9204,-8.5148 13.9211,-18.6555 15.4663,-31.3635 1.0685,-8.7883 0.1274,-14.403 -3.7294,-22.2497 -3.6559,-7.4381 -6.3112,-10.6266 -13.5766,-16.3031 -8.3856,-6.5517 -12.0376,-11.6379 -12.0376,-16.7651 0,-3.6528 1.4481,-6.3378 4.4031,-8.1641 6.5441,-4.0445 7.4846,-11.5394 2.0471,-16.3137 -3.4051,-2.9897 -6.2387,-3.3038 -10.8322,-1.2009 -10.6506,4.876 -17.3299,17.6278 -15.4145,29.4287 1.513,9.3219 7.6752,19.0238 16.5733,26.0937 11.2839,8.9654 13.0264,12.0053 12.6395,22.051 -0.2285,5.9321 -0.4942,7.0431 -2.8024,11.7133 -1.9223,3.8894 -3.6797,6.1954 -7.1388,9.3672 -6.8817,6.3101 -9.7024,7.3988 -9.7024,3.7449 0,-3.9856 -0.7916,-3.823 -4.0665,0.8347 -3.5622,5.0662 -15.7227,18.9914 -19.676,22.5314 -4.2725,3.8257 -16.1972,12.3632 -18.7693,13.4379 -1.4846,0.6203 -2.2974,1.3565 -2.069,1.8738 1.1454,2.5943 18.2648,15.5112 20.5577,15.5112 0.5151,0 2.2191,-0.8929 3.7866,-1.9843 z"
           id="path5201"
           inkscape:connector-curvature="0" />
        <path
           style="fill:#ff2d25;fillOpacity:1"
           d="m 2903.2677,2689.8341 c 0.5863,-1.0289 4.7359,-4.5173 9.2212,-7.7521 6.2803,-4.5293 9.8107,-7.7428 15.356,-13.9773 8.7088,-9.7914 11.22,-13.2585 14.7529,-20.3686 4.1469,-8.3458 4.57,-10.0371 3.1875,-12.7423 -1.3943,-2.7283 -11.4534,-12.8259 -12.777,-12.8259 -0.6259,0 -1.5737,2.4586 -2.8256,7.3296 -1.0362,4.0312 -2.8218,9.6095 -3.968,12.3963 -2.5668,6.2404 -10.1005,16.4012 -17.0681,23.0197 -4.9647,4.716 -13.8746,10.4088 -16.3199,10.4273 -0.6562,0.01 -1.1931,0.3104 -1.1931,0.6788 0,1.3639 9.2175,15.6973 10.0895,15.6895 0.2633,0 0.9583,-0.8461 1.5446,-1.875 z"
           id="path5197"
           inkscape:connector-curvature="0" />
        <path
           style="fill:#ff2d25;fillOpacity:1"
           d="m 2887.6766,2656.5129 c 7.4168,-4.2681 16.63,-14.2074 19.9794,-21.554 1.4393,-3.1571 6.4776,-20.4031 6.4776,-22.1728 0,-0.3675 -1.304,-1.0188 -2.8978,-1.4473 -5.8936,-1.5846 -5.7716,-1.6474 -8.3884,4.3274 -4.8536,11.082 -8.1963,16.9443 -12.0879,21.1986 -4.4107,4.8219 -7.3005,6.8478 -10.8704,7.6206 l -2.4181,0.5235 2.7618,6.9886 c 1.5191,3.8437 2.8483,6.9886 2.9539,6.9886 0.1056,0 2.126,-1.1129 4.4899,-2.4732 z"
           id="path5193"
           inkscape:connector-curvature="0" />
        <path
           style="fill:#ff2d25;fillOpacity:1"
           d="m 2877.43,2622.5179 c 1.7964,-2.2837 6.9708,-13.2645 6.4813,-13.7541 -0.226,-0.2259 -3.1832,0.1276 -6.5716,0.7858 l -6.1607,1.1966 0.01,5.8814 c 0,3.2346 0.1968,7.0261 0.4281,8.4253 l 0.4205,2.5442 2.0698,-1.7417 c 1.1384,-0.9579 2.6347,-2.4598 3.3251,-3.3375 z"
           id="path5189"
           inkscape:connector-curvature="0" />
      </g>
      <path
         inkscape:connector-curvature="0"
         id="path5187"
         d="m 1486.5825,-603.90868 c 25.0844,-16.3319 27.3561,-17.79788 41.2505,-26.62074 18.8246,-10.40018 24.7858,-26.43361 12.393,-39.12314 -10.9211,-8.15754 -24.5191,-13.45199 -36.7586,-18.81886 -7.7803,-3.85932 -13.3463,-4.36142 -4.6123,-10.59795 11.5985,-8.20758 57.3341,-45.41908 71.7622,-58.38744 12.1693,-10.93808 20.7641,-20.57062 26.0362,-29.14111 6.9761,-13.16689 9.6553,-32.01763 -2.9874,-40.07186 -9.7123,-6.03002 -27.219,-9.02904 -44.2427,-17.98514 0.2104,-0.89654 5.5996,-15.66443 11.976,-32.81767 6.3764,-17.15324 12.3123,-33.85528 13.1909,-37.11577 4.4225,-46.96616 -43.9316,-15.73045 -56.1135,-5.87291 -20.2544,16.45376 -31.7944,26.70929 -62.2527,55.32401 -20.6336,17.40498 -46.6253,46.39789 -19.2884,60.62755 4.6949,2.38831 11.0556,5.05522 19.6711,8.49487 18.1261,7.23669 17.8842,5.56405 2.5603,17.69116 -33.794,28.95873 -64.828,57.8524 -96.4595,87.74804 -9.5026,9.09717 -11.3343,17.80278 -5.6056,26.63793 5.3112,8.19111 14.6788,12.83813 37.6645,18.68413 l 4.1594,1.05793 -9.1495,11.13066 c -5.0322,6.12174 -16.6531,19.31402 -25.8243,29.3164 -6.8191,7.43715 -12.045,13.27643 -16.005,17.93055 -10.0797,10.73908 -16.7884,24.89014 -3.4485,35.37199 9.5909,7.21957 26.3693,2.80084 38.926,-1.11524 39.6489,-12.46198 77.3618,-35.64813 103.1579,-52.34739 z"
         style="fill:#ffc325;fillOpacity:1"
         sodipodi:nodetypes="cccccscccsccccsccsccsscccc" />
      <path
         inkscape:connector-curvature="0"
         id="path5185"
         d="m -103.4491,-73.534126 c 6.494262,-3.358376 10.973316,-9.884658 13.035547,-18.993166 1.839194,-8.123778 4.814069,-30.247518 6.44907,-47.959358 l 0.762061,-8.2557 10.50437,-0.85226 c 13.825238,-1.12178 22.732298,-3.50055 34.866363,-9.31161 33.2639304,-15.93028 52.277589,-44.20211 50.044465,-74.41213 -1.367502,-18.50061 -7.1375773,-31.85013 -18.8136739,-43.52605 -20.9703171,-20.97031 -54.6971561,-26.36659 -82.3897131,-13.18229 -8.486966,4.04067 -20.767589,14.60706 -27.266789,23.46088 -7.68868,10.47418 -16.69692,30.00308 -20.66659,44.80298 -1.3955,5.20288 -1.54517,5.3165 -10.41838,7.89873 -55.67969,16.20364 -62.67785,19.75669 -65.58118,33.29448 -2.67682,12.48134 2.89565,21.64053 31.61429,51.96399 37.75341,39.863212 49.90102,51.724107 55.64072,54.328289 6.54019,2.96719 17.22734,3.324709 22.21944,0.743215 z"
         style="fill:#5ec96e;fillOpacity:1" />
      <path
         inkscape:connector-curvature="0"
         id="path5181"
         d="m 1595.7828,583.66456 c 11.381,-23.22999 14.9415,-47.1348 11.2904,-75.80441 -1.0977,-8.62036 -1.862,-16.08397 -1.6981,-16.58496 0.1627,-0.50142 3.9795,-1.48853 8.4795,-2.19358 10.7376,-1.68299 41.2225,-8.6404 51.0511,-11.65123 10.366,-3.17552 17.0596,-7.98503 20.5365,-14.75658 3.2721,-6.37155 3.5815,-11.85323 1.0777,-19.08548 -2.7878,-8.05234 -16.0315,-19.22017 -56.6318,-47.75462 -10.4903,-7.37284 -26.1983,-18.60344 -34.9063,-24.95675 -20.2346,-14.76276 -25.7395,-17.79368 -33.1366,-18.24244 -14.4666,-0.87776 -29.4022,13.07949 -29.6647,27.72073 -0.1036,5.78996 4.0453,36.7236 8.1684,60.90334 1.8716,10.97567 2.9668,20.13814 2.4343,20.36083 -0.5325,0.22349 -3.7603,0.48532 -7.1727,0.58359 -9.1052,0.26267 -27.8091,4.04537 -38.6488,7.81681 -14.3953,5.00833 -33.8761,16.49289 -44.7268,26.36769 -11.3306,10.31187 -21.0797,23.18437 -28.3321,36.77464 -19.0966,35.43719 -16.7914,91.85518 13.4677,116.21154 17.3098,12.99621 46.0111,16.78291 68.9323,9.09551 39.9475,-15.39018 72.9431,-41.62073 89.48,-74.80463 z"
         style="fill:#5ec96e;fillOpacity:1"
         sodipodi:nodetypes="ccccsccssscscccccccc" />
      <path
         inkscape:connector-curvature="0"
         id="path5173"
         d="m 1201.3539,-1014.5831 c -2.7793,0.08 -5.6321,0.4752 -8.5336,1.2186 -10.9728,2.8111 -17.1824,6.3451 -25.1655,14.33005 -8.1726,8.175 -15.8102,22.67521 -20.2871,38.50541 l -2.909,10.27767 -1.626,-6.35374 c -4.2727,-16.6713 -16.7773,-33.07255 -29.5036,-38.7021 -8.0306,-3.55232 -21.9347,-4.41429 -30.6041,-1.8939 -18.7211,5.44238 -29.8324,23.26199 -26.3124,42.18983 1.4042,7.55054 6.4194,19.30202 11.4569,26.83755 l 2.6517,3.96309 -8.4873,2.51233 c -4.6664,1.38305 -13.0032,3.62972 -18.5292,4.99228 -14.1921,3.49962 -37.7514,13.92385 -50.34817,22.2778 -14.14324,9.37949 -22.22676,17.62768 -29.44283,30.04681 -3.26415,5.61766 -6.33508,10.21674 -6.82562,10.21674 -0.49053,0 -3.12564,-1.61981 -5.85716,-3.59843 -10.77389,-7.80468 -12.3551,-21.64931 -5.07444,-44.43064 7.24096,-22.65655 7.19339,-31.74914 -0.23584,-47.62508 -7.2029,-15.39236 -18.56356,-23.79241 -37.12254,-27.44885 -18.84972,-3.71351 -34.09827,1.45698 -37.85496,12.83996 -1.77809,5.38749 -0.7262,11.63438 2.68725,15.97383 4.39763,5.59095 8.6445,6.96138 21.55599,6.96138 10.60501,0 12.19701,0.30556 15.22348,2.90901 5.54466,4.76924 5.55216,13.3916 0.0293,30.47915 -5.50258,17.02114 -6.5541,27.47337 -4.12044,40.93541 3.58599,19.83738 12.74042,32.56756 31.78354,44.19114 l 11.24264,6.8613 1.98319,8.1084 c 1.09086,4.45985 4.20991,12.64144 6.93284,18.18244 3.98266,8.10456 7.01535,12.0574 15.50232,20.20514 20.1036,19.30019 39.01095,25.38735 76.86795,24.75062 19.7508,-0.33209 24.2313,-0.85117 46.9856,-5.4497 30.2184,-6.10692 91.9315,-22.90612 122.1488,-33.25222 42.8835,-14.68281 72.1653,-27.12773 78.9622,-33.55613 4.9886,-4.71837 10.113,-14.94537 10.1203,-20.19782 0.022,-15.68529 -8.3719,-23.49125 -53,-49.28698 -7.5474,-4.36251 -17.5062,-10.63611 -22.1312,-13.94417 -4.6251,-3.30806 -11.7231,-7.85225 -15.7702,-10.09544 l -7.3581,-4.07744 8.0836,-9.32715 c 11.2812,-13.01817 17.4611,-22.77548 20.3515,-32.13374 9.3846,-30.38346 -10.6023,-59.16451 -37.4691,-58.39241 z m -27.4568,126.48818 c 3.9927,-0.0878 8.0775,1.15416 11.5176,4.0489 8.1277,6.83879 7.8408,19.13606 -0.6217,26.5662 -3.5856,3.14815 -5.4779,3.85605 -10.2777,3.85221 -3.6313,0 -7.4116,-0.93735 -9.8773,-2.44079 -5.157,-3.14431 -7.8548,-8.48368 -7.8548,-15.538 0,-9.6565 8.3301,-16.29384 17.1139,-16.48852 z m -58.3278,-1.78612 c 5.8001,0.2364 11.3483,3.17084 14.2121,8.70891 7.8824,15.24306 -7.9414,31.48164 -23.1317,23.73569 -6.4641,-3.29598 -9.3021,-7.95745 -9.3021,-15.28056 0,-4.29535 0.7853,-7.31853 2.5121,-9.6737 3.8597,-5.26416 9.9096,-7.72673 15.7096,-7.49034 z"
         style="fill:#0088e3;fillOpacity:1"
         sodipodi:nodetypes="ccccccsccccccssscsssscsccsccsssssscsssccccccccsccscsscsss" />
      <path
         inkscape:connector-curvature="0"
         d="m -120.76065,121.52757 c -2.54654,-5.35767 -1.93982,-11.38408 1.70764,-16.95692 11.89877,-18.180237 39.306083,-1.90268 29.677398,17.62585 -6.079292,12.32929 -25.402168,11.91761 -31.385038,-0.66893 z m -43.66973,-14.07214 c -5.67329,-8.3512 -2.00222,-21.408887 7.09495,-25.235844 13.02786,-5.480437 25.88483,3.775909 24.39053,17.560344 -0.67735,6.25 -3.61453,10.55505 -8.9217,13.078 -7.93531,3.77206 -17.96177,1.37134 -22.56378,-5.4025 z m -27.27021,27.24363 c 18.49311,9.28965 26.26723,13.02311 42.54003,20.42892 8.5296,3.88166 20.97124,9.62081 27.64792,12.75341 13.81389,6.48127 47.692227,19.9704 61.148052,24.34717 11.271554,3.66631 15.578619,4.11751 24.733784,2.59137 13.121908,-2.18756 23.332615,-9.15425 35.11428407,-23.95836 5.02850683,-6.31825 5.88918783,-6.91198 9.76133743,-6.73377 6.9427165,0.3191 25.1767525,-3.32233 32.0045655,-6.39217 16.94667,-7.6186 34.120403,-26.98337 37.821661,-42.64725 C 82.097516,102.28099 75.533177,81.579455 65.553741,72.459969 60.399353,67.749643 54.477414,65.841654 48.735332,67.040825 34.382049,70.038023 29.753876,85.223809 39.462885,97.463813 c 5.109561,6.441747 5.208364,10.747537 0.369961,16.122217 -6.879227,7.64147 -12.801715,11.55204 -19.48352,12.86447 l -6.599839,1.29651 -1.783571,-7.97154 C 8.0657724,102.34448 -6.415771,85.085486 -23.871092,77.064722 c -4.580601,-2.10468 -9.455049,-4.045055 -10.832614,-4.311822 -2.320582,-0.449552 -2.192321,-0.872757 1.749722,-5.769709 9.674245,-12.018247 13.741255,-27.205132 10.664101,-39.820768 C -25.346728,14.630219 -31.82123,7.2932066 -44.048792,2.5043877 -54.121723,-1.4405832 -61.72715,-2.0703587 -72.278909,0.16624094 -81.122479,2.04093 -89.729838,7.3729806 -93.697131,13.434524 -95.350246,15.960396 -95.36836,15.941367 -97.746577,9.2010129 -102.06778,-4.0122153 -115.19866,-12.159941 -127.067,-13.176217 c -16.55816,-1.191378 -33.32685,8.8960635 -38.95496,23.216321 -4.55481,12.492865 -4.69148,20.445931 -0.67021,38.976737 l 3.79731,17.498318 -21.93565,0.04025 c -38.72754,0.07136 -46.78545,1.912929 -53.53769,12.229757 -5.65133,8.634804 -5.06053,17.85602 1.75338,27.368344 3.29488,4.59963 26.10403,19.09581 44.91423,28.545 z"
         style="fill:#0088e3;fillOpacity:1"
         id="path5163"
         sodipodi:nodetypes="cccccscccccsscccccscccccscccsscccccscssscc" />
      <path
         inkscape:connector-curvature="0"
         id="path5161"
         d="m 160.24183,-447.64019 c 2.90059,-8.61248 3.89502,-23.21277 4.07908,-59.89217 -0.51217,-46.69721 2.98045,-81.84866 0.17034,-125.65887 -1.98483,-30.0351 -5.07333,-41.04684 -13.91251,-49.60315 -5.9406,-5.74958 -15.17005,-8.63682 -22.77383,-7.12349 -6.89313,1.37208 -17.2837,7.34086 -25.04465,14.38677 l -7.064021,6.41339 -4.042493,-20.47283 c -2.22306,-11.26021 -6.035379,-30.63761 -8.471596,-43.06095 -5.310278,-27.07906 -6.80604,-32.44643 -11.8082,-42.36585 -8.8873,-17.62383 -22.013966,-23.34945 -36.155372,-15.76945 -3.939847,2.11163 -21.545205,14.57431 -23.459964,16.6069 -4.5330851,-31.0241 -10.3453898,-74.97492 -33.789414,-94.65188 -7.345979,-5.99055 -11.581869,-7.1352 -19.734552,-5.33205 -10.757049,2.37932 -17.750265,16.65557 -18.962976,38.71162 -0.320194,5.82533 -1.481857,17.4566 -2.581129,25.84696 -2.159753,16.48047 -2.508306,46.9891 -4.71307,83.65111 -1.919699,31.91948 -1.281873,50.80086 2.016124,59.69913 4.226192,11.40201 12.744263,17.84395 23.814004,18.00898 5.936576,0.0878 15.469204,-5.33644 28.880019,-16.43618 19.0339676,-15.75391 16.4780891,-15.35138 20.6953162,-3.25811 1.9824572,5.68554 7.9971608,31.00263 13.3658088,56.26025 10.094156,47.48877 12.916436,57.44844 18.083449,63.81298 4.124463,5.08029 12.936563,8.54387 19.017318,7.4746 7.546511,-1.32725 12.730723,-4.82065 25.66015,-17.29211 l 11.981287,-11.55662 2.072478,12.54538 c 1.140073,6.89972 3.874163,21.9545 6.075993,33.45513 2.20202,11.50045 5.019,28.12455 6.26007,36.9425 4.16105,29.56194 8.17098,42.63518 15.07253,49.13676 4.2207,3.97589 14.04681,6.53873 19.87123,5.18293 6.20572,-1.44471 12.90509,-8.25844 15.39858,-15.66168 z"
         style="fill:#ffc325;fillOpacity:1"
         sodipodi:nodetypes="ccccccccssccccccsccscsscsccccccc" />
      <path
         inkscape:connector-curvature="0"
         id="path5157"
         d="m -62.899974,-343.89721 c 7.756924,-3.92302 17.237406,-16.61605 26.217104,-35.10093 2.746897,-5.65462 5.500747,-10.59402 6.119544,-10.97643 0.618798,-0.38258 5.765868,0.80031 11.437873,2.62852 12.4280944,4.0059 31.330325,5.42024 41.631422,3.11485 11.414452,-2.55442 17.95775,-10.27493 17.95775,-21.1886 0,-9.14821 -5.584546,-18.20201 -21.027952,-34.09131 l -10.6073844,-10.91367 6.5683644,-13.6011 c 4.860546,-10.06415 6.743652,-15.53215 7.241873,-21.02759 1.205942,-13.29847 -4.200943,-22.61721 -16.0903834,-27.73189 -12.3413678,-5.30918 -26.1322076,-3.11284 -47.3087296,7.53461 -5.383647,2.70683 -10.411239,4.92166 -11.172202,4.92166 -0.761147,0 -5.528376,-3.55068 -10.594025,-7.89013 -12.156936,-10.41435 -20.142204,-14.66122 -29.022734,-15.43517 -9.824646,-0.85629 -19.142286,3.96199 -24.529956,12.68462 -3.46486,5.60997 -3.74975,6.9343 -3.61124,16.7862 0.0823,5.88279 1.34591,16.00256 2.80691,22.48877 1.461,6.48603 2.65633,12.4828 2.65633,13.3261 0,0.8433 -6.44267,5.53094 -14.31724,10.41691 -19.14082,11.87645 -25.60288,19.78341 -25.60288,31.32704 0,15.73889 14.95031,25.84952 41.84787,28.30074 l 9.81385,0.89435 2.23971,11.22764 c 2.431642,12.19005 7.826817,24.60662 12.668147,29.15483 6.437726,6.04783 16.427041,7.32293 24.677979,3.14998 z"
         style="fill:#ffffff" />
      <path
         inkscape:connector-curvature="0"
         id="path5153"
         d="m 1585.0138,-130.21954 c 8.1221,-3.9318 19.2965,-16.75419 31.4359,-36.07175 7.1125,-11.31803 9.1193,-13.47541 11.7924,-12.67657 3.1182,0.93131 6.0775,2.64279 24.9682,14.43836 16.0929,10.04878 30.7124,11.07359 44.3077,3.10625 8.1563,-4.77985 15.2935,-17.35286 15.2935,-26.94111 0,-7.55785 -4.7709,-22.29866 -12.6787,-39.17379 l -6.0345,-12.87728 13.323,-12.61125 c 16.7692,-15.87338 22.2408,-25.95546 21.1602,-38.98881 -0.8936,-10.77205 -6.8172,-19.11795 -17.4128,-24.53124 -5.6206,-2.8715 -9.7832,-3.62331 -20.0422,-3.61929 -10.8964,0 -31.5515,2.57509 -45.4131,5.65206 -3.0682,0.68083 -3.8572,-0.50389 -6.8118,-10.23193 -11.127,-36.63328 -53.5839,-46.49781 -68.5419,-15.92534 -4.5854,9.37216 -8.9512,31.73908 -8.9612,45.91085 0,10.18985 -0.2955,10.35873 -22.5737,13.24578 -30.3401,3.93162 -43.3731,10.97131 -45.9734,24.83259 -3.1392,16.7326 17.0076,38.77639 41.7276,45.65616 l 9.4304,2.62486 -1.163,15.39474 c -1.9376,25.64661 -1.2914,37.94662 2.437,46.37504 4.3048,9.73206 7.3789,13.093 15.3034,16.73186 8.4639,3.88661 15.9394,3.78854 24.427,-0.32019 z"
         style="fill:#ffffff" />
      <path
         inkscape:connector-curvature="0"
         id="path5151"
         d="m 1138.3833,961.33925 c 58.0819,3.65277 96.8401,-1.88018 114.5787,-16.35404 11.4325,-9.32898 17.9136,-23.12421 17.7554,-37.79348 -0.1901,-17.65494 -13.9036,-34.99005 -30.8909,-39.04992 -10.1349,-2.42213 -31.2527,1.68422 -40.774,7.92873 l -3.5216,2.3096 -7.8414,-9.63985 c -6.4839,-7.97136 -9.0136,-10.11574 -14.6128,-12.38747 -14.8568,-6.02788 -29.7857,-0.62118 -41.6985,15.10107 l -5.032,6.641 -6.1942,-7.19448 c -7.118,-8.26777 -13.6083,-12.63997 -23.4155,-15.77366 -17.7521,-5.67219 -42.5829,6.26555 -49.5603,23.82736 -2.9358,7.38953 -6.9279,28.51097 -6.9007,36.50832 0.031,8.85235 3.1522,18.41188 8.5675,26.23631 6.8706,9.92675 22.0154,15.44286 46.5505,16.95527 7.8821,0.4856 27.2275,1.6941 42.9898,2.68524 z"
         style="fill:#ffffff;fillOpacity:1" />
      <path
         inkscape:connector-curvature="0"
         id="path5149"
         d="m 733.06601,-866.54264 c 3.70547,-2.45213 6.17371,-5.49855 8.53344,-10.53236 3.28172,-7.00072 3.31996,-7.40032 3.31996,-34.70169 l 0,-27.61956 4.36634,-1.56181 c 24.94255,-8.92188 30.9503,-12.65022 35.09855,-21.78142 8.92737,-19.6513 -6.55519,-37.88952 -39.14049,-46.10722 l -11.55205,-2.9132 -0.32495,-5.4354 c -0.81603,-13.6437 -2.89089,-30.8052 -4.24394,-35.0989 -3.45846,-10.9763 -14.49618,-17.2056 -26.0828,-14.7207 -11.19105,2.4 -17.5029,6.4418 -32.01628,20.5014 l -14.05742,13.6181 -7.47131,-3.3529 c -17.29559,-7.7619 -32.81035,-8.115 -43.03844,-0.9798 -14.59316,10.1802 -14.00803,25.7963 1.83608,49.01291 2.61626,3.83372 5.99275,9.39284 7.50333,12.35381 l 2.74635,5.38346 -2.79538,5.11139 c -1.53748,2.8113 -4.90226,7.95691 -7.47754,11.43495 -9.4007,12.69614 -11.80362,18.79281 -11.80362,29.94635 0,9.01922 0.39137,10.70289 3.74261,16.10465 4.44612,7.16667 10.81944,10.8758 19.84762,11.55113 5.3423,0.39961 33.52173,-4.50009 45.14953,-7.85042 2.15627,-0.62136 5.81033,2.58735 20.58389,18.0743 10.22735,10.72137 20.11091,19.92539 22.95222,21.37431 7.07189,3.60594 17.28754,2.84534 24.3243,-1.81138 z"
         style="fill:#ffffff" />
      <g
         transform="matrix(1.829679,0,0,1.829679,-2750.9493,-4304.2407)"
         id="g5362">
        <path
           sodipodi:nodetypes="ccccccccccssccccssccsccccccccccccccssssssssccccsssscccscscsscccscscccscccssccccsccssccc"
           style="fill:#ffffff;fillOpacity:1"
           d="m 1856.2162,2097.3618 c -4.3512,5.6949 -14.7339,22.5338 -17.5898,28.5254 -3.2836,6.8886 -4.7586,8.6296 -11.1465,13.1582 -28.4547,19.7035 -43.3799,41.5379 -56.4698,69.9199 -11.5252,26.8951 -15.3355,62.8398 -6.8906,88.7913 12.1159,33.6226 27.2097,45.7852 55.9724,61.8664 12.7325,7.0753 27.7338,13.9053 45.794,20.9068 23.1485,7.7987 46.7722,12.6414 70.8945,14.3913 50.4936,2.2731 92.5797,-6.5175 135.1974,-26.3659 16.885,-7.9824 31.1002,-18.3957 39.8495,-35.7364 8.3354,-16.7976 10.3093,-24.9163 10.8613,-44.6601 0.6361,-22.7494 -2.827,-35.7086 -16.0371,-60 -7.3914,-13.5917 -10.4433,-18.2637 -16.0273,-24.5449 -7.5088,-7.2498 -6.6658,-18.458 -8.0196,-26.9815 -1.4811,-9.2625 -3.3349,-18.5132 -5.2558,-26.4525 -6.9829,-22.8423 -12.4388,-31.4402 -33.2051,-18.1246 -6.1554,4.0183 -21.2327,15.7204 -27.084,21.0214 -4.2573,3.857 -9.6283,8.0583 -16.3144,12.7579 -4.003,2.8136 -7.9892,4.371 -11.1914,4.371 -16.6601,-4.6167 -33.4367,-13.1212 -49.0626,-16.2753 -7.5,-1.5233 -14.6597,-3.0724 -15.9101,-3.4434 -5.4801,-1.626 -12.6992,-7.5083 -17.0137,-13.8613 -2.4972,-3.6772 -11.1672,-19.9947 -15.125,-28.4668 -13.9943,-26.4184 -17.9182,-34.4249 -36.2263,-10.7969 z m 35.7911,66.8479 c 18.065,14.7627 22.6916,35.0963 20.9868,55.6755 -0.728,8.3604 -2.3076,16.4748 -4.2286,24.2428 -2.569,14.259 -9.8275,27.7608 -18.3719,37.5006 -3.9523,4.46 -9.7461,8.9729 -15.5915,12.5932 -12.0195,7.7932 -23.4002,9.0802 -36.1515,5.7007 -26.6813,-7.9347 -40.2052,-30.6707 -40.3094,-53.2929 0.5581,-19.2266 4.659,-39.7501 13.0821,-56.9473 5.5653,-11.0938 14.1218,-21.7064 22.082,-27.3867 18.4552,-12.0655 40.4116,-11.5177 58.502,1.9141 z m 119.5371,24.5 c 7.0269,3.0817 10.2937,5.7974 17.7442,14.75 8.7238,10.4828 13.2909,27.1315 13.2304,48.2207 -0.053,18.4667 -4.1574,31.0429 -15.7422,48.2227 -9.3733,13.9002 -19.7626,20.5371 -35.9609,22.9726 -4.7148,0.7089 -15.7582,0.8592 -19.3008,0.2637 -4.0187,-0.6755 -12.128,-3.1322 -16.5586,-5.0176 -12.2761,-5.2239 -23.6513,-17.1639 -28.1426,-29.5371 -6.0432,-16.6488 -6.626,-36.7729 -1.6211,-56.0488 5.6332,-21.6957 11.1877,-30.674 24.5039,-39.6153 17.8557,-11.0386 42.4922,-12.5921 61.8477,-4.2109 z m 81.1699,64.3105 c 3.7497,0.01 4.9573,0.2755 6.2559,0.916 6.3845,3.1491 7.1397,11.7464 1.4004,15.9473 -2.8856,2.1121 -14.1626,3.2957 -25.0098,2.625 -6.6661,-0.4122 -8.5619,-1.2422 -11.3398,-4.9629 -2.608,-3.4931 -1.212,-9.8614 2.7422,-12.5059 1.6403,-1.097 3.8834,-1.3461 15.8886,-1.7675 4.6494,-0.1633 7.8127,-0.2555 10.0625,-0.252 z m -19.8379,32.1895 c 3.7278,-0.084 8.2603,0.1957 12.8418,0.8554 9.6669,1.392 13.2983,4.2269 13.293,10.3809 -0.01,5.6766 -4.1432,9.4414 -10.3828,9.4414 -1.6621,0 -3.1839,-0.1625 -3.3809,-0.3594 -0.1969,-0.1969 -4.5164,-0.6128 -9.5976,-0.9238 -10.4134,-0.6374 -12.733,-1.4949 -14.9512,-5.5352 -2.4031,-4.377 -0.6225,-9.7257 4.1719,-12.5332 1.3557,-0.7939 4.2781,-1.2419 8.0058,-1.3261 z m -169.3516,14.1152 c 5.1478,2.2025 8.2168,8.4684 11.7286,23.9473 1.0209,4.5 2.4302,10.0234 3.1308,12.2734 1.7865,5.7369 2.5904,11.6769 1.959,14.4766 -0.6906,3.0623 -3.6598,6.1451 -6.7441,7.0019 -2.7407,0.7614 -2.3916,0.7644 -5.2676,-0.068 -2.7154,-0.7861 -5.4667,-4.0046 -6.2344,-7.2929 -0.3243,-1.3892 -1.1173,-4.5196 -1.7617,-6.9571 -0.6444,-2.4375 -1.9594,-7.8085 -2.9219,-11.9335 -0.9626,-4.125 -1.9793,-7.7506 -2.2598,-8.0586 -0.2803,-0.308 -3.3391,2.0804 -6.7968,5.3086 -7.865,7.3427 -12.8657,11.1409 -15.7657,11.9726 -6.6928,1.9195 -13.3503,-4.8511 -11.5058,-11.7012 0.4951,-1.8387 1.7819,-3.4751 4.5918,-5.8339 2.1476,-1.8029 8.039,-7.0449 13.0898,-11.6504 7.4592,-5.4925 15.4856,-15.3798 24.7578,-11.4848 z m 154.129,16.4414 c 4.4195,0.3203 23.9501,5.7447 27.2305,7.666 8.1218,4.7569 6.061,15.8046 -3.2559,17.4531 -1.125,0.1991 -2.3516,0.2553 -2.7266,0.125 -0.375,-0.1302 -5.2851,-1.5219 -10.9101,-3.0937 -12.5117,-3.4962 -15.8014,-5.0335 -17.4824,-8.168 -3.0795,-5.7421 0.2252,-12.8769 6.4726,-13.9765 0.151,-0.027 0.3773,-0.027 0.6719,-0.01 z"
           id="path4347"
           inkscape:connector-curvature="0" />
        <path
           inkscape:connector-curvature="0"
           style="fill:#ffffff"
           d="m 1992.8422,2302.8292 c 8.121,-2.116 12.9408,-5.8249 18.4477,-14.1957 3.4861,-5.2991 7.2822,-12.2601 8.6552,-15.8713 0.5932,-1.5602 0.4423,-1.5208 -2.8503,0.7441 -5.4393,3.7415 -9.7443,4.7668 -20.012,4.7661 -7.3803,-5e-4 -9.7195,-0.2676 -13.9773,-1.596 -10.9283,-3.4096 -16.3285,-7.6375 -21.0387,-16.4715 -3.5006,-6.5655 -4.6305,-11.1159 -5.9538,-23.9769 -0.9951,-9.6726 -0.9271,-18.3582 0.1805,-23.0686 0.382,-1.6245 0.2818,-1.5925 -2.1371,0.6818 -3.2482,3.0542 -5.8134,8.1383 -8.4281,16.7046 -3.454,11.3158 -4.3362,16.8577 -4.4498,27.9545 -0.094,9.1971 0.084,10.934 1.7701,17.2429 2.4033,8.9931 3.8494,11.7493 8.9575,17.0734 5.8626,6.1106 10.2332,8.4734 19.8494,10.7305 4.9003,1.1503 15.1642,0.7991 20.9867,-0.7179 z"
           id="path4339" />
        <path
           sodipodi:nodetypes="ccccssccsscscc"
           inkscape:connector-curvature="0"
           style="fill:#ffffff"
           d="m 1883.3339,2259.6128 c 2.0947,-3.469 3.4937,-6.7037 4.045,-9.4646 l 0.4424,-2.2157 -2.8982,1.0226 c -9.3759,3.308 -22.862,-0.9453 -35.6719,-11.2502 -6.0055,-4.8312 -10.2389,-10.3767 -12.8351,-16.8136 -1.4859,-3.684 -1.601,-4.8746 -1.5378,-15.9137 0.049,-8.6115 0.3658,-12.9751 1.1372,-15.6809 0.588,-2.062 0.9881,-3.8301 0.889,-3.9292 -0.3679,-0.3679 -5.7411,7.8181 -7.7252,11.7692 -4.3415,8.6454 -8.891,24.4734 -11.108,38.6449 -1.7955,9.9645 -0.2949,19.2252 3.3868,26.8401 8.5116,17.6044 28.6801,26.4121 46.7271,14.7819 5.9182,-3.8534 10.5281,-10.2299 15.1487,-17.7908 z"
           id="path4333" />
      </g>
      <path
         sodipodi:nodetypes="cscccccsccccccsscccccc"
         id="path4329"
         d="m 1323.6976,-108.73589 c 11.0827,-33.55851 18.193,-63.84774 33.4258,-142.39092 8.1919,-42.23833 11.9829,-58.28059 15.4774,-65.49428 1.9944,-4.11678 6.5726,-14.78289 10.1738,-23.70257 9.2026,-22.79286 15.7848,-33.64048 28.8449,-47.53763 10.8264,-10.60097 10.02,-20.21447 4.2152,-25.66015 -18.516,-13.20223 -34.4627,7.81072 -38.3859,11.37292 -7.4982,6.66699 -13.927,6.52354 -19.9814,0.868 -6.6403,-6.20298 3.7,-17.7627 9.348,-24.79233 17.811,-27.45251 -5.6303,-41.29604 -20.179,-33.72153 -6.2377,4.13416 -9.9174,10.519 -16.2627,14.29912 -4.0315,2.35681 -7.5335,2.68505 -11.6624,1.50089 -10.6709,-3.06051 -10.4784,-8.69647 -5.2579,-18.81002 6.0688,-10.44198 12.5143,-17.04944 3.4178,-25.57068 -7.9397,-7.98289 -22.6827,-2.50208 -41.7836,16.18516 -15.4972,15.16163 -24.5117,26.10202 -36.9497,44.84543 -8.9753,13.52535 -18.8991,32.35586 -27.4774,51.46009 -19.7753,39.73788 -24.5003,77.8082 -24.4117,117.77241 -1.951,43.91413 12.2354,79.37312 32.0184,115.5832 19.1595,44.957411 52.2476,82.125693 73.7802,105.324742 18.0051,-31.24433 25.7198,-53.622951 31.6502,-71.531302 z"
         style="fill:#ffffff;fillOpacity:1"
         inkscape:connector-curvature="0" />
    </g>
  </g>
</svg>
